<svg viewBox="-6.5 -78.0 848.5 86.0" xmlns="http://www.w3.org/2000/svg" class="word-draw" aria-hidden="true" preserveAspectRatio="xMinYMid meet"><path d="M1.50 0L26.60-70L36.20-70L61.40 0L51.50 0L45.30-17.80L17.60-17.80L11.40 0L1.50 0M20.20-25.90L42.80-25.90L31.50-58.60L31.30-58.60"/><path d="M70.40 0L70.40-70L111.20-70L120.70-60.50L120.70-41.10L116.20-36.50L123.80-28.80L123.80-10.10L113.70 0L70.40 0M79.80-39.20L106.80-39.20L111.30-43.70L111.30-57.40L106.80-61.80L79.80-61.80L79.80-39.20M79.80-8.20L109.10-8.20L114.40-13.40L114.40-26L109.10-31.30L79.80-31.30"/><path d="M135.80 0L135.80-70L177.70-70L189-58.70L189-11.30L177.70 0L135.80 0M145.40-8.40L173.20-8.40L179.40-14.60L179.40-55.40L173.20-61.60L145.40-61.60"/><path d="M214.30 0L203-11.30L203-70L212.60-70L212.60-14.60L218.80-8.40L240.60-8.40L246.80-14.60L246.80-70L256.40-70L256.40-11.30L245.10 0"/><path d="M271.40 0L271.40-70L281-70L281-8.30L316.40-8.30L316.40 0"/><path d="M325.90 0L325.90-70L335.50-70L335.50-8.30L370.90-8.30L370.90 0"/><path d="M374.40 0L399.50-70L409.10-70L434.30 0L424.40 0L418.20-17.80L390.50-17.80L384.30 0L374.40 0M393.10-25.90L415.70-25.90L404.40-58.60L404.20-58.60"/><path d="M443.30 0L443.30-70L452.90-70L452.90-39.10L486.90-39.10L486.90-70L496.50-70L496.50 0L486.90 0L486.90-30.70L452.90-30.70L452.90 0"/><path d="M530.80 0L555.90-70L565.50-70L590.70 0L580.80 0L574.60-17.80L546.90-17.80L540.70 0L530.80 0M549.50-25.90L572.10-25.90L560.80-58.60L560.60-58.60"/><path d="M599.70 0L599.70-70L609.30-70L609.30-8.30L644.70-8.30L644.70 0"/><path d="M654.20 0L654.20-70L701.20-70L701.20-61.60L663.80-61.60L663.80-39.30L698.30-39.30L698.30-31L663.80-31L663.80-8.40L701.20-8.40L701.20 0"/><path d="M729.30 0L729.30-61.70L708.20-61.70L708.20-70L760-70L760-61.70L738.90-61.70L738.90 0"/><path d="M755 0L780.10-70L789.70-70L814.90 0L805 0L798.80-17.80L771.10-17.80L764.90 0L755 0M773.70-25.90L796.30-25.90L785-58.60L784.80-58.60"/><path d="M824.40 0L824.40-70L834-70L834 0"/></svg>